<mxfile host="Electron" modified="2024-02-11T07:45:58.713Z" agent="Mozilla/5.0 (Windows NT 10.0; Win64; x64) AppleWebKit/537.36 (KHTML, like Gecko) draw.io/23.0.2 Chrome/120.0.6099.109 Electron/28.1.0 Safari/537.36" etag="RnrF-c1qzjW08XecpRUP" version="23.0.2" type="device">
  <diagram id="C5RBs43oDa-KdzZeNtuy" name="Page-1">
    <mxGraphModel dx="1235" dy="1900" grid="1" gridSize="10" guides="1" tooltips="1" connect="1" arrows="1" fold="1" page="1" pageScale="1" pageWidth="827" pageHeight="1169" math="0" shadow="0">
      <root>
        <mxCell id="WIyWlLk6GJQsqaUBKTNV-0" />
        <mxCell id="WIyWlLk6GJQsqaUBKTNV-1" parent="WIyWlLk6GJQsqaUBKTNV-0" />
        <mxCell id="WIyWlLk6GJQsqaUBKTNV-3" value="Surgical 👁️" style="rounded=1;whiteSpace=wrap;html=1;fontSize=12;glass=0;strokeWidth=1;shadow=0;" parent="WIyWlLk6GJQsqaUBKTNV-1" vertex="1">
          <mxGeometry x="157.25" y="40" width="120" height="40" as="geometry" />
        </mxCell>
        <mxCell id="rotK4lt1HQvz8-j532BF-1" style="edgeStyle=orthogonalEdgeStyle;rounded=0;orthogonalLoop=1;jettySize=auto;html=1;entryX=0;entryY=0.5;entryDx=0;entryDy=0;" edge="1" parent="WIyWlLk6GJQsqaUBKTNV-1" source="rotK4lt1HQvz8-j532BF-0" target="WIyWlLk6GJQsqaUBKTNV-3">
          <mxGeometry relative="1" as="geometry" />
        </mxCell>
        <mxCell id="rotK4lt1HQvz8-j532BF-0" value="Surgeon" style="shape=umlActor;verticalLabelPosition=bottom;verticalAlign=top;html=1;outlineConnect=0;" vertex="1" parent="WIyWlLk6GJQsqaUBKTNV-1">
          <mxGeometry x="60" y="30" width="30" height="60" as="geometry" />
        </mxCell>
        <mxCell id="rotK4lt1HQvz8-j532BF-13" style="edgeStyle=orthogonalEdgeStyle;rounded=0;orthogonalLoop=1;jettySize=auto;html=1;entryX=0.5;entryY=1;entryDx=0;entryDy=0;" edge="1" parent="WIyWlLk6GJQsqaUBKTNV-1" source="rotK4lt1HQvz8-j532BF-6" target="rotK4lt1HQvz8-j532BF-11">
          <mxGeometry relative="1" as="geometry" />
        </mxCell>
        <mxCell id="rotK4lt1HQvz8-j532BF-6" value="Surgical Tools&amp;nbsp;&lt;br&gt;Dataset" style="strokeWidth=2;html=1;shape=mxgraph.flowchart.multi-document;whiteSpace=wrap;" vertex="1" parent="WIyWlLk6GJQsqaUBKTNV-1">
          <mxGeometry x="473" y="160" width="114" height="80" as="geometry" />
        </mxCell>
        <mxCell id="rotK4lt1HQvz8-j532BF-60" style="edgeStyle=orthogonalEdgeStyle;rounded=0;orthogonalLoop=1;jettySize=auto;html=1;entryX=0.5;entryY=1;entryDx=0;entryDy=0;" edge="1" parent="WIyWlLk6GJQsqaUBKTNV-1" source="rotK4lt1HQvz8-j532BF-9" target="rotK4lt1HQvz8-j532BF-56">
          <mxGeometry relative="1" as="geometry" />
        </mxCell>
        <mxCell id="rotK4lt1HQvz8-j532BF-9" value="Surgery Video" style="sketch=0;pointerEvents=1;shadow=0;dashed=0;html=1;strokeColor=none;fillColor=#505050;labelPosition=center;verticalLabelPosition=bottom;verticalAlign=top;outlineConnect=0;align=center;shape=mxgraph.office.concepts.video_form;" vertex="1" parent="WIyWlLk6GJQsqaUBKTNV-1">
          <mxGeometry x="187.25" y="195" width="60" height="50" as="geometry" />
        </mxCell>
        <mxCell id="rotK4lt1HQvz8-j532BF-12" style="edgeStyle=orthogonalEdgeStyle;rounded=0;orthogonalLoop=1;jettySize=auto;html=1;entryX=0;entryY=0.5;entryDx=0;entryDy=0;" edge="1" parent="WIyWlLk6GJQsqaUBKTNV-1" source="rotK4lt1HQvz8-j532BF-10" target="rotK4lt1HQvz8-j532BF-11">
          <mxGeometry relative="1" as="geometry" />
        </mxCell>
        <mxCell id="rotK4lt1HQvz8-j532BF-10" value="Frames" style="strokeWidth=2;html=1;shape=mxgraph.flowchart.multi-document;whiteSpace=wrap;" vertex="1" parent="WIyWlLk6GJQsqaUBKTNV-1">
          <mxGeometry x="350" y="30" width="88" height="60" as="geometry" />
        </mxCell>
        <mxCell id="rotK4lt1HQvz8-j532BF-66" style="edgeStyle=orthogonalEdgeStyle;rounded=0;orthogonalLoop=1;jettySize=auto;html=1;entryX=0;entryY=0.5;entryDx=0;entryDy=0;" edge="1" parent="WIyWlLk6GJQsqaUBKTNV-1" source="rotK4lt1HQvz8-j532BF-11" target="rotK4lt1HQvz8-j532BF-15">
          <mxGeometry relative="1" as="geometry" />
        </mxCell>
        <mxCell id="rotK4lt1HQvz8-j532BF-11" value="YOLO Model" style="ellipse;whiteSpace=wrap;html=1;" vertex="1" parent="WIyWlLk6GJQsqaUBKTNV-1">
          <mxGeometry x="490" y="35" width="80" height="50" as="geometry" />
        </mxCell>
        <mxCell id="rotK4lt1HQvz8-j532BF-46" style="edgeStyle=orthogonalEdgeStyle;rounded=0;orthogonalLoop=1;jettySize=auto;html=1;" edge="1" parent="WIyWlLk6GJQsqaUBKTNV-1" source="rotK4lt1HQvz8-j532BF-15" target="rotK4lt1HQvz8-j532BF-45">
          <mxGeometry relative="1" as="geometry" />
        </mxCell>
        <mxCell id="rotK4lt1HQvz8-j532BF-49" style="edgeStyle=orthogonalEdgeStyle;rounded=0;orthogonalLoop=1;jettySize=auto;html=1;entryX=1;entryY=0.5;entryDx=0;entryDy=0;" edge="1" parent="WIyWlLk6GJQsqaUBKTNV-1" source="rotK4lt1HQvz8-j532BF-15" target="rotK4lt1HQvz8-j532BF-24">
          <mxGeometry relative="1" as="geometry">
            <Array as="points">
              <mxPoint x="690" y="385" />
            </Array>
          </mxGeometry>
        </mxCell>
        <mxCell id="rotK4lt1HQvz8-j532BF-15" value="Tools and Count" style="rounded=1;whiteSpace=wrap;html=1;" vertex="1" parent="WIyWlLk6GJQsqaUBKTNV-1">
          <mxGeometry x="640" y="40" width="100" height="40" as="geometry" />
        </mxCell>
        <mxCell id="rotK4lt1HQvz8-j532BF-22" style="edgeStyle=orthogonalEdgeStyle;rounded=0;orthogonalLoop=1;jettySize=auto;html=1;entryX=0.5;entryY=0;entryDx=0;entryDy=0;" edge="1" parent="WIyWlLk6GJQsqaUBKTNV-1" source="rotK4lt1HQvz8-j532BF-20" target="rotK4lt1HQvz8-j532BF-28">
          <mxGeometry relative="1" as="geometry">
            <mxPoint x="260" y="312.5" as="targetPoint" />
          </mxGeometry>
        </mxCell>
        <mxCell id="rotK4lt1HQvz8-j532BF-23" style="edgeStyle=orthogonalEdgeStyle;rounded=0;orthogonalLoop=1;jettySize=auto;html=1;entryX=0.5;entryY=0;entryDx=0;entryDy=0;startArrow=classic;startFill=1;" edge="1" parent="WIyWlLk6GJQsqaUBKTNV-1" source="rotK4lt1HQvz8-j532BF-20" target="rotK4lt1HQvz8-j532BF-24">
          <mxGeometry relative="1" as="geometry">
            <mxPoint x="460" y="322.5" as="targetPoint" />
          </mxGeometry>
        </mxCell>
        <mxCell id="rotK4lt1HQvz8-j532BF-50" style="edgeStyle=orthogonalEdgeStyle;rounded=0;orthogonalLoop=1;jettySize=auto;html=1;exitX=0.5;exitY=1;exitDx=0;exitDy=0;entryX=0.5;entryY=0;entryDx=0;entryDy=0;" edge="1" parent="WIyWlLk6GJQsqaUBKTNV-1" source="rotK4lt1HQvz8-j532BF-20" target="rotK4lt1HQvz8-j532BF-48">
          <mxGeometry relative="1" as="geometry" />
        </mxCell>
        <mxCell id="rotK4lt1HQvz8-j532BF-61" style="edgeStyle=orthogonalEdgeStyle;rounded=0;orthogonalLoop=1;jettySize=auto;html=1;entryX=1;entryY=0.5;entryDx=0;entryDy=0;" edge="1" parent="WIyWlLk6GJQsqaUBKTNV-1" source="rotK4lt1HQvz8-j532BF-20" target="rotK4lt1HQvz8-j532BF-56">
          <mxGeometry relative="1" as="geometry">
            <Array as="points">
              <mxPoint x="340" y="148" />
            </Array>
          </mxGeometry>
        </mxCell>
        <mxCell id="rotK4lt1HQvz8-j532BF-20" value="Flask" style="rounded=1;whiteSpace=wrap;html=1;" vertex="1" parent="WIyWlLk6GJQsqaUBKTNV-1">
          <mxGeometry x="301" y="252.5" width="80" height="30" as="geometry" />
        </mxCell>
        <mxCell id="rotK4lt1HQvz8-j532BF-27" style="edgeStyle=orthogonalEdgeStyle;rounded=0;orthogonalLoop=1;jettySize=auto;html=1;" edge="1" parent="WIyWlLk6GJQsqaUBKTNV-1" source="rotK4lt1HQvz8-j532BF-24" target="rotK4lt1HQvz8-j532BF-25">
          <mxGeometry relative="1" as="geometry" />
        </mxCell>
        <mxCell id="rotK4lt1HQvz8-j532BF-24" value="Highlighted Video Stream" style="rounded=1;whiteSpace=wrap;html=1;" vertex="1" parent="WIyWlLk6GJQsqaUBKTNV-1">
          <mxGeometry x="417.25" y="365" width="90" height="40" as="geometry" />
        </mxCell>
        <mxCell id="rotK4lt1HQvz8-j532BF-30" style="edgeStyle=orthogonalEdgeStyle;rounded=0;orthogonalLoop=1;jettySize=auto;html=1;entryX=1;entryY=0.5;entryDx=0;entryDy=0;" edge="1" parent="WIyWlLk6GJQsqaUBKTNV-1" source="rotK4lt1HQvz8-j532BF-25" target="rotK4lt1HQvz8-j532BF-28">
          <mxGeometry relative="1" as="geometry" />
        </mxCell>
        <mxCell id="rotK4lt1HQvz8-j532BF-25" value="Archetype Descriptor" style="ellipse;whiteSpace=wrap;html=1;fillColor=#fff2cc;strokeColor=#d6b656;" vertex="1" parent="WIyWlLk6GJQsqaUBKTNV-1">
          <mxGeometry x="295.25" y="360" width="82" height="50" as="geometry" />
        </mxCell>
        <mxCell id="rotK4lt1HQvz8-j532BF-33" style="edgeStyle=orthogonalEdgeStyle;rounded=0;orthogonalLoop=1;jettySize=auto;html=1;" edge="1" parent="WIyWlLk6GJQsqaUBKTNV-1" source="rotK4lt1HQvz8-j532BF-28" target="rotK4lt1HQvz8-j532BF-32">
          <mxGeometry relative="1" as="geometry" />
        </mxCell>
        <mxCell id="rotK4lt1HQvz8-j532BF-28" value="Video/frame description" style="rounded=1;whiteSpace=wrap;html=1;" vertex="1" parent="WIyWlLk6GJQsqaUBKTNV-1">
          <mxGeometry x="172.25" y="365" width="90" height="40" as="geometry" />
        </mxCell>
        <mxCell id="rotK4lt1HQvz8-j532BF-35" style="edgeStyle=orthogonalEdgeStyle;rounded=0;orthogonalLoop=1;jettySize=auto;html=1;entryX=0;entryY=0.5;entryDx=0;entryDy=0;" edge="1" parent="WIyWlLk6GJQsqaUBKTNV-1" source="rotK4lt1HQvz8-j532BF-32" target="rotK4lt1HQvz8-j532BF-34">
          <mxGeometry relative="1" as="geometry" />
        </mxCell>
        <mxCell id="rotK4lt1HQvz8-j532BF-32" value="Browser Automation" style="rounded=1;whiteSpace=wrap;html=1;" vertex="1" parent="WIyWlLk6GJQsqaUBKTNV-1">
          <mxGeometry x="169.75" y="465" width="95" height="40" as="geometry" />
        </mxCell>
        <mxCell id="rotK4lt1HQvz8-j532BF-38" style="edgeStyle=orthogonalEdgeStyle;rounded=0;orthogonalLoop=1;jettySize=auto;html=1;entryX=0;entryY=0.5;entryDx=0;entryDy=0;" edge="1" parent="WIyWlLk6GJQsqaUBKTNV-1" source="rotK4lt1HQvz8-j532BF-34" target="rotK4lt1HQvz8-j532BF-37">
          <mxGeometry relative="1" as="geometry" />
        </mxCell>
        <mxCell id="rotK4lt1HQvz8-j532BF-34" value="AudioBox" style="ellipse;whiteSpace=wrap;html=1;" vertex="1" parent="WIyWlLk6GJQsqaUBKTNV-1">
          <mxGeometry x="297.25" y="460" width="82" height="50" as="geometry" />
        </mxCell>
        <mxCell id="rotK4lt1HQvz8-j532BF-37" value="Extracted audio" style="rounded=1;whiteSpace=wrap;html=1;" vertex="1" parent="WIyWlLk6GJQsqaUBKTNV-1">
          <mxGeometry x="417.25" y="465" width="95" height="40" as="geometry" />
        </mxCell>
        <mxCell id="rotK4lt1HQvz8-j532BF-62" style="edgeStyle=orthogonalEdgeStyle;rounded=0;orthogonalLoop=1;jettySize=auto;html=1;entryX=0;entryY=0.5;entryDx=0;entryDy=0;" edge="1" parent="WIyWlLk6GJQsqaUBKTNV-1" source="rotK4lt1HQvz8-j532BF-42" target="rotK4lt1HQvz8-j532BF-56">
          <mxGeometry relative="1" as="geometry">
            <Array as="points">
              <mxPoint x="80" y="148" />
            </Array>
          </mxGeometry>
        </mxCell>
        <mxCell id="rotK4lt1HQvz8-j532BF-42" value="Downloaded Audio" style="shape=note;whiteSpace=wrap;html=1;backgroundOutline=1;darkOpacity=0.05;" vertex="1" parent="WIyWlLk6GJQsqaUBKTNV-1">
          <mxGeometry x="50" y="282.5" width="70" height="100" as="geometry" />
        </mxCell>
        <mxCell id="rotK4lt1HQvz8-j532BF-45" value="Instrument Count" style="rounded=1;whiteSpace=wrap;html=1;" vertex="1" parent="WIyWlLk6GJQsqaUBKTNV-1">
          <mxGeometry x="645" y="465" width="90" height="40" as="geometry" />
        </mxCell>
        <mxCell id="rotK4lt1HQvz8-j532BF-51" style="edgeStyle=orthogonalEdgeStyle;rounded=0;orthogonalLoop=1;jettySize=auto;html=1;exitX=1;exitY=0.5;exitDx=0;exitDy=0;entryX=0.5;entryY=0;entryDx=0;entryDy=0;" edge="1" parent="WIyWlLk6GJQsqaUBKTNV-1" source="rotK4lt1HQvz8-j532BF-48" target="rotK4lt1HQvz8-j532BF-24">
          <mxGeometry relative="1" as="geometry" />
        </mxCell>
        <mxCell id="rotK4lt1HQvz8-j532BF-52" style="edgeStyle=orthogonalEdgeStyle;rounded=0;orthogonalLoop=1;jettySize=auto;html=1;entryX=0.5;entryY=0;entryDx=0;entryDy=0;" edge="1" parent="WIyWlLk6GJQsqaUBKTNV-1" source="rotK4lt1HQvz8-j532BF-48" target="rotK4lt1HQvz8-j532BF-28">
          <mxGeometry relative="1" as="geometry" />
        </mxCell>
        <mxCell id="rotK4lt1HQvz8-j532BF-48" value="Multi-threading" style="shape=hexagon;perimeter=hexagonPerimeter2;whiteSpace=wrap;html=1;fixedSize=1;" vertex="1" parent="WIyWlLk6GJQsqaUBKTNV-1">
          <mxGeometry x="286" y="310" width="110" height="22.5" as="geometry" />
        </mxCell>
        <mxCell id="rotK4lt1HQvz8-j532BF-54" style="edgeStyle=orthogonalEdgeStyle;rounded=0;orthogonalLoop=1;jettySize=auto;html=1;entryX=0.5;entryY=1;entryDx=0;entryDy=0;entryPerimeter=0;" edge="1" parent="WIyWlLk6GJQsqaUBKTNV-1" source="rotK4lt1HQvz8-j532BF-37" target="rotK4lt1HQvz8-j532BF-42">
          <mxGeometry relative="1" as="geometry">
            <Array as="points">
              <mxPoint x="465" y="550" />
              <mxPoint x="85" y="550" />
            </Array>
          </mxGeometry>
        </mxCell>
        <mxCell id="rotK4lt1HQvz8-j532BF-63" style="edgeStyle=orthogonalEdgeStyle;rounded=0;orthogonalLoop=1;jettySize=auto;html=1;entryX=0.5;entryY=1;entryDx=0;entryDy=0;" edge="1" parent="WIyWlLk6GJQsqaUBKTNV-1" source="rotK4lt1HQvz8-j532BF-56" target="WIyWlLk6GJQsqaUBKTNV-3">
          <mxGeometry relative="1" as="geometry" />
        </mxCell>
        <mxCell id="rotK4lt1HQvz8-j532BF-56" value="TaiPy" style="ellipse;whiteSpace=wrap;html=1;fillColor=#fff2cc;strokeColor=#d6b656;" vertex="1" parent="WIyWlLk6GJQsqaUBKTNV-1">
          <mxGeometry x="182.25" y="130" width="70" height="35" as="geometry" />
        </mxCell>
        <mxCell id="rotK4lt1HQvz8-j532BF-64" style="edgeStyle=orthogonalEdgeStyle;rounded=0;orthogonalLoop=1;jettySize=auto;html=1;entryX=0;entryY=0.5;entryDx=0;entryDy=0;entryPerimeter=0;" edge="1" parent="WIyWlLk6GJQsqaUBKTNV-1" source="WIyWlLk6GJQsqaUBKTNV-3" target="rotK4lt1HQvz8-j532BF-10">
          <mxGeometry relative="1" as="geometry" />
        </mxCell>
        <mxCell id="rotK4lt1HQvz8-j532BF-67" value="" style="rounded=0;whiteSpace=wrap;html=1;strokeOpacity=100;fillOpacity=0;" vertex="1" parent="WIyWlLk6GJQsqaUBKTNV-1">
          <mxGeometry y="-10" width="790" height="600" as="geometry" />
        </mxCell>
      </root>
    </mxGraphModel>
  </diagram>
</mxfile>
